<?xml version="1.0" standalone="no"?>
<!DOCTYPE svg PUBLIC "-//W3C//DTD SVG 20010904//EN"
 "http://www.w3.org/TR/2001/REC-SVG-20010904/DTD/svg10.dtd">
<svg version="1.0" xmlns="http://www.w3.org/2000/svg"
 width="260.000000pt" height="260.000000pt" viewBox="0 0 260.000000 260.000000"
 preserveAspectRatio="xMidYMid meet">
<metadata>
Created by potrace 1.14, written by Peter Selinger 2001-2017
</metadata>
<g transform="translate(0.000000,260.000000) scale(0.100000,-0.100000)"
fill="#000000" stroke="none">
<path d="M1140 2466 c-154 -35 -215 -103 -241 -269 -13 -85 -6 -250 14 -324
l14 -52 -30 -22 c-24 -17 -34 -19 -46 -11 -17 12 -153 80 -186 93 -115 46
-292 59 -351 27 -49 -27 -108 -92 -135 -149 l-24 -52 25 -16 c43 -27 80 -72
80 -96 0 -31 -58 -58 -116 -53 l-43 3 -7 -40 c-35 -199 37 -304 263 -384 108
-38 193 -53 316 -54 66 -1 75 -4 60 -14 -54 -38 -70 -51 -102 -78 -165 -142
-276 -335 -265 -460 6 -64 60 -151 127 -204 16 -12 21 -11 45 12 15 14 44 30
65 35 54 15 77 -9 71 -69 -3 -24 -10 -51 -15 -60 -16 -30 -10 -38 48 -65 72
-32 87 -36 143 -37 93 -2 199 73 294 206 68 97 146 262 146 310 0 26 17 12 25
-20 20 -84 114 -268 165 -324 89 -98 121 -125 175 -150 47 -21 71 -26 114 -23
29 2 59 8 65 13 6 5 16 10 21 11 21 5 56 20 80 36 23 15 23 17 8 40 -23 35
-23 112 0 129 26 19 66 9 110 -27 l38 -30 27 23 c129 117 149 228 70 384 -50
97 -150 216 -247 293 -24 18 -24 21 -9 43 9 15 26 25 44 26 128 9 210 28 318
73 105 44 167 95 201 167 21 42 25 168 8 213 -9 21 -15 24 -52 21 -55 -4 -100
15 -107 45 -8 31 33 86 75 104 l31 12 -33 62 c-83 157 -197 196 -407 140 -98
-27 -241 -96 -317 -154 -29 -22 -53 -39 -53 -37 0 1 10 31 21 67 12 36 23 74
25 85 1 11 8 47 13 80 14 77 14 182 0 265 -27 167 -106 242 -280 263 -36 4
-37 4 -43 -33 -7 -44 -49 -100 -75 -100 -26 0 -61 42 -75 91 -7 24 -17 44 -22
45 -5 1 -34 -3 -64 -10z"/>
</g>
</svg>
